<svg width="1920" height="730" viewBox="0 0 1920 730" fill="none" xmlns="http://www.w3.org/2000/svg">
<rect y="23" width="1920" height="310" fill="#F4F6FA"/>
<g opacity="0.9">
<path opacity="0.8" d="M655.1 68.6141C655.1 68.6141 663.404 73.0575 672.028 65.8514C680.651 58.6453 690.521 49.8967 709.094 50.5183C752.237 51.9688 765.344 46.5585 759.799 42.8748C754.253 39.1682 699.728 37.7638 699.728 37.7638C699.728 37.7638 715.462 27.1734 689.937 24.8251C647.83 20.9573 647.83 20.9573 644.778 22.6149C641.754 24.2726 641.913 36.6587 638.384 36.6587C634.855 36.6587 633.263 46.075 637.11 53.3731C640.931 60.6713 641.037 61.408 636.261 60.0267C631.485 58.6453 631.167 55.0308 632.122 50.3342C633.077 45.6145 626.683 45.8908 624.454 49.2291C622.225 52.5443 594.525 47.1801 599.221 53.3731C603.918 59.5662 602.22 64.378 596.25 65.8514C590.28 67.3249 564.304 81.0003 582.612 82.4737C600.919 83.9472 624.348 68.9134 621.801 85.3055C619.254 101.698 599.434 91.5216 600.919 83.9472C602.405 76.3727 590.28 86.1573 582.187 90.2324C574.095 94.2843 555.15 99.6486 558.334 90.2324C561.518 80.7931 561.518 74.1626 571.123 69.7192C580.701 65.2758 591.58 56.9647 583.912 52.5443C576.244 48.101 568.576 54.7545 566.029 59.1979C563.481 63.6412 551.966 59.1979 551.966 55.8826C551.966 52.5674 523.204 58.0928 523.204 62.5361C523.204 66.9795 516.173 65.2989 511.052 66.1277C505.958 66.9565 470.59 87.4697 490.622 85.9041C510.654 84.3386 506.277 91.0842 502.456 92.6497C498.608 94.2153 475.472 92.7418 475.153 88.2985C474.835 83.8551 465.097 87.838 451.672 91.3374C438.246 94.8369 380.59 87.5848 368.385 82.4737C299.612 53.6494 250.34 81.9903 256.734 98.6126C259.282 105.22 272.946 143.438 266.18 150.644C255.912 161.579 220.597 155.939 206.826 160.613C183.981 168.371 248.509 163.375 269.603 157.297C282.365 153.614 278.544 178.915 311.764 158.402C326.145 149.516 350.953 136.554 357.772 154.512C375.018 199.958 341.162 216.604 334.768 229.911C328.373 243.218 332.645 252.818 341.587 267.622C350.528 282.402 345.832 285.717 347.981 296.078C350.104 306.415 362.468 324.534 368.013 325.27C373.559 326.007 368.438 317.512 362.893 304.941C357.347 292.371 353.951 275.749 359.496 278.695C365.042 281.642 366.74 290.897 376.955 310.098C387.17 329.322 390.381 321.932 391.017 336.897C391.654 351.861 420.84 361.853 431.905 361.853C442.995 361.853 442.783 356.305 447.559 361.853C452.362 367.402 457.138 372.95 464.169 372.95C471.2 372.95 478.231 378.499 483.326 390.125C488.446 401.774 501.846 407.047 509.195 405.09C516.545 403.156 540.504 407.691 526.017 426.155C526.017 426.155 493.647 453.875 508.134 476.045C522.621 498.216 546.262 527.616 559.661 537.032C573.06 546.449 577.544 568.067 575.846 608.725C574.148 649.383 580.091 657.878 582.24 661.216C584.363 664.555 591.819 661.032 591.819 666.212C591.819 671.392 584.575 668.699 584.894 674.523C585.212 680.348 600.123 738.089 650.801 728.488C650.801 728.488 651.65 725.542 639.525 720.73C627.399 715.918 623.552 706.502 629.522 704.476C635.492 702.45 637.827 689.511 629.097 685.989C620.368 682.466 631.22 672.866 632.175 666.765C633.13 660.664 627.054 661.216 628.354 657.349C629.628 653.458 654.436 641.279 658.071 638.861C661.68 636.467 654.436 629.629 651.677 623.712C648.917 617.796 651.677 620.558 661.468 624.081C671.258 627.603 683.623 603.936 689.141 593.967C694.687 583.975 681.898 577.322 694.262 571.405C706.627 565.488 729.206 559.963 730.029 536.296C730.878 512.628 735.574 503.396 742.818 500.081C750.061 496.766 760.595 478.555 750.379 473.283C740.164 468.011 732.496 458.042 731.223 457.627C729.949 457.213 705.671 458.871 703.92 454.726C702.169 450.559 699.171 445.955 687.682 446.116C676.193 446.3 667.013 432.441 666.376 428.02C665.739 423.577 658.708 413.792 644.221 411.375C629.734 408.981 620.58 395.858 610.79 390.862C600.999 385.866 571.494 385.405 569.584 381.538C567.674 377.647 551.621 375.114 536.046 390.401C520.472 405.711 526.15 394.845 523.921 393.44C521.692 392.059 517.633 388.905 508.373 395.374C499.113 401.844 492.93 384.277 496.937 378.591C500.917 372.904 502.217 356.834 488.155 359.044C474.092 361.255 473.641 356.65 478.231 351.102C482.821 345.553 498.37 327.596 484.626 329.115C470.882 330.635 463.532 340.626 455.386 346.566C447.241 352.529 428.243 329.529 432.064 324.534C435.885 319.538 454.59 281.159 464.169 288.918C473.747 296.676 482.37 292.233 483.326 288.918C484.281 285.602 512.406 280.054 511.742 291.404C511.105 302.777 523.231 320.228 527.397 304.435C531.536 288.641 519.623 283.83 531.96 275.703C544.325 267.576 559.236 259.449 563.482 248.352C567.753 237.255 587.759 228.759 594.154 227.286C600.548 225.813 600.548 220.632 608.641 215.084C616.733 209.536 612.488 215.452 630.796 215.452C649.103 215.452 668.923 192.729 658.682 197.702C648.466 202.698 639.047 202.283 642.072 197.149C645.123 192.015 640.798 186.49 636.792 187.871C632.785 189.253 619.917 195.584 622.995 190.588C626.073 185.592 637.588 180.803 652.765 182.047C667.942 183.29 672.266 182.599 676.246 179.56C680.253 176.521 681.049 179.146 678.634 181.77C676.246 184.418 659.955 191.877 664.413 194.663C668.897 197.426 670.807 193.972 678.157 196.459C685.506 198.945 680.916 201.593 690.495 201.409C700.073 201.224 701.559 195.952 699.436 190.68C697.314 185.408 689.858 184.763 690.388 181.632C690.919 178.478 694.581 176.222 695.085 170.673C695.562 165.125 692.856 158.748 688.213 158.333C683.569 157.919 676.538 152.37 679.908 147.098C683.251 141.826 679.536 126.171 672.93 133.008C666.323 139.846 653.242 141.826 654.012 136.577C654.808 131.305 643.744 115.834 625.197 124.329C606.677 132.824 609.649 140.307 610.073 141.527C610.498 142.724 616.149 148.503 611.029 151.127C605.908 153.752 588.024 156.952 587.228 162.915C586.432 168.878 592.588 172.561 585.398 174.426C578.207 176.291 573.67 174.012 577.013 168.601C580.356 163.191 585.398 160.428 582.612 158.356C579.826 156.284 566.904 156.837 567.17 154.742C567.435 152.67 550.825 151.265 550.188 146.016C549.552 140.744 542.043 136.738 569.186 124.812C596.356 112.887 596.037 113.992 598.266 118.435C600.495 122.878 608.163 120.093 608.8 117.33C609.437 114.567 607.526 118.435 612.62 119.816C617.741 121.198 624.428 116.777 621.562 112.887C618.697 108.996 623.472 103.286 629.442 101.79C635.412 100.316 641.356 85.7199 649.024 88.7589C656.692 91.7979 647.113 94.3074 645.521 99.004C643.929 103.724 653.083 106.026 650.111 107.315C647.14 108.604 626.258 112.127 633.077 115.442C639.896 118.757 644.142 113.6 650.111 117.86C656.081 122.096 660.114 127.092 670.356 126.355C680.571 125.618 680.571 123.592 686.541 117.491C692.511 111.39 696.756 110.101 702.302 108.812C707.847 107.522 708.484 97.0701 699.861 94.5836C691.238 92.0742 678.608 74.3468 669.666 74.3468C660.698 74.4388 648.705 72.7812 655.1 68.6141Z" fill="white"/>
<path opacity="0.8" d="M1876.09 129.792C1868.82 123.194 1833.26 115.526 1818.15 115.526C1803.04 115.526 1779.23 104.494 1770 103.883C1760.8 103.271 1763.5 116.774 1760.09 116.468C1756.68 116.163 1750.33 114.099 1750.07 111.628C1749.8 109.182 1717.15 114.507 1711.5 105.31C1705.83 96.1125 1671.61 102.864 1665.24 102.456C1658.86 102.049 1677.73 64.4197 1654.15 66.6616C1646.72 67.3749 1669.03 107.246 1607.09 98.4563C1604.39 98.0742 1607.18 101.335 1602.21 101.87C1597.25 102.405 1584.19 100.494 1584.19 103.959C1584.19 107.45 1586.19 107.016 1580.87 106.915C1575.58 106.813 1570.97 105.233 1564.94 97.8704C1558.91 90.5076 1554.33 91.3738 1530.25 92.8005C1506.18 94.2272 1476.11 88.3931 1472.9 80.1132C1471.32 76.037 1480.67 62.6873 1473.82 47.5797C1466.82 32.0645 1456.59 8.75344 1433.96 30.2302C1430.69 33.3383 1459.41 41.6182 1454.83 54.7641C1449.71 69.4385 1429.22 72.776 1425.11 76.521C1417.32 83.6035 1402.33 80.5463 1398.33 82.1768C1394.33 83.8073 1379.93 81.7692 1377.11 89.9472C1374.29 98.1251 1363.91 91.5777 1363.91 94.3546C1363.91 97.1061 1363.38 94.6603 1356.82 97.7175C1350.27 100.775 1336.31 100.163 1331.69 95.2718C1327.08 90.3548 1310.82 94.3546 1316.47 107.551C1322.14 120.748 1306.74 120.035 1297.59 113.284C1264.47 88.7498 1330.34 63.6299 1296.45 59.7065C1268.11 56.42 1278.25 117.233 1273.64 115.373C1269.05 113.538 1256.06 112.061 1245.45 119.627C1234.84 127.194 1236.31 117.997 1236.48 116.596C1236.66 115.22 1221.61 112.647 1219.73 119.831C1217.85 126.99 1209.82 140.9 1201.09 138.225C1192.36 135.576 1171.61 128.621 1182.69 128.213C1193.77 127.805 1210.53 134.76 1211.23 123.704C1211.94 112.672 1188.72 111.373 1176.84 111.373C1164.99 111.373 1161.97 103.399 1159.67 102.023C1157.38 100.647 1153.47 105.08 1144.62 105.233C1135.77 105.386 1108.35 103.857 1101.62 117.054C1094.89 130.251 1091.01 139.754 1081.78 139.754C1072.58 139.754 1044.62 140.365 1054.53 167.065C1054.53 167.065 1061.85 175.65 1072.46 169.103C1083.07 162.555 1090.27 172.109 1089.39 178.402C1088.51 184.694 1090.27 184.694 1096.3 184.236C1102.32 183.777 1116.58 172.975 1120.84 167.065C1125.08 161.129 1124.13 158.887 1117.79 157.052C1111.41 155.218 1108.82 151.524 1112.85 148.467C1116.84 145.41 1129.6 141.512 1130.54 132.111C1131.48 122.71 1150.12 126.175 1148.47 131.499C1146.83 136.824 1131.95 138.047 1129.84 144.391C1127.72 150.734 1135.45 161.256 1138.1 161.409C1140.74 161.562 1164.76 150.505 1164.29 157.868C1163.79 165.23 1160.38 166.147 1150.47 166.147C1140.57 166.147 1128.9 174.733 1130.31 186.707C1131.72 198.656 1119.34 189.153 1117.73 187.318C1116.14 185.484 1114.9 185.331 1108.7 189.153C1102.5 193 1089.71 195.904 1088.3 186.707C1086.89 177.51 1082.16 172.593 1074.13 175.676C1066.11 178.733 1062.58 181.408 1068.7 186.936C1074.84 192.465 1069.93 195.471 1067.81 195.93C1065.7 196.388 1048.88 191.216 1048.88 198.987C1048.88 206.757 1038.27 205.738 1038.74 201.229C1039.21 196.719 1031.42 195.904 1028.6 188.541C1025.78 181.179 1021.75 179.956 1024.37 172.797C1026.95 165.638 1017.52 156.849 1016.34 163.192C1015.17 169.536 1012.08 160.95 1006.2 166.046C1000.29 171.166 998.471 174.58 999 184.083C999.53 193.586 986.39 181.077 982.833 185.459C979.306 189.866 972.457 215.827 984.479 209.993C996.502 204.158 1003.59 197.407 1002.53 191.293C1001.47 185.153 1008.91 184.236 1008.52 191.293C1008.17 198.35 992.945 216.336 1006.64 226.17C1020.34 235.979 1024.81 249.889 1009.96 250.5C995.091 251.112 975.749 255.01 975.749 261.939C975.749 268.894 970.781 269.098 970.781 269.098C970.781 269.098 960.875 284.639 970.781 287.9C980.687 291.186 994.385 292.409 987.301 299.772C980.217 307.135 967.048 312.765 966.372 327.796C965.696 342.827 951.175 341.604 939.152 351.413C927.13 361.221 920.751 371.769 926.424 388.532C932.098 405.296 924.073 402.85 920.281 412.251C916.518 421.652 951.439 475.229 972.192 475.636C992.945 476.044 1001.44 474.006 1005.23 475.636C1008.99 477.267 1012.32 473.191 1027.87 468.681C1043.45 464.172 1044.97 464.885 1048.5 470.719C1052.03 476.554 1057 477.165 1064.08 479.636C1071.16 482.082 1079.78 494.056 1073.16 500.603C1066.55 507.151 1084.95 520.45 1095.59 544.372C1106.2 568.295 1092.53 583.631 1087.8 590.179C1083.1 596.701 1091.92 608.165 1099.53 620.853C1107.14 633.54 1104.82 647.45 1106.23 654.813C1107.64 662.176 1120.37 667.704 1123.22 686.098C1126.05 704.492 1143.74 706.352 1167.11 700.824C1190.45 695.321 1205.32 673.232 1208.15 662.787C1210.97 652.367 1206.03 649.284 1217.35 646.839C1228.66 644.367 1222.99 630.89 1223.72 622.305C1224.43 613.719 1213.82 614.331 1240.01 604.497C1266.2 594.688 1257.7 559.098 1251.33 548.678C1244.95 538.258 1250.97 514.335 1284.25 493.47C1317.52 472.605 1328.84 433.957 1315.41 433.345C1301.94 432.734 1278.72 443.765 1276.11 436.403C1273.52 429.04 1240.95 410.646 1240.95 399.589C1240.95 388.558 1226.31 362.164 1220.67 358.903C1214.99 355.642 1207.47 337.019 1218.55 340.483C1229.63 343.948 1259.12 388.532 1262.32 398.06C1265.49 407.563 1266.2 430.568 1279.66 428.428C1293.13 426.288 1344.07 410.646 1363.44 375.055C1363.44 375.055 1345.27 356.432 1338.42 353.375C1331.57 350.317 1331.22 361.043 1326.96 362.979C1322.73 364.915 1278.02 334.344 1303.27 327.083C1303.27 327.083 1323.78 351.311 1334.87 349.069C1345.95 346.827 1349.27 348.458 1363.41 355.616C1377.58 362.775 1391.95 356.228 1399.51 358.266C1407.06 360.304 1424.76 380.966 1428.05 382.596C1431.34 384.227 1438.19 372.788 1440.78 380.966C1443.36 389.144 1453.39 449.88 1471.79 455.714C1471.79 455.714 1477.34 448.453 1480.64 455.612C1483.93 462.771 1490.78 471.968 1498.1 465.446C1505.42 458.898 1498.8 444.784 1493.13 443.765C1487.46 442.746 1485.22 413.091 1489.48 409.729C1493.75 406.366 1518.61 390.621 1523.35 380.38C1528.08 370.164 1526.43 376.915 1533.49 378.138C1540.57 379.361 1548.6 372.609 1548.6 372.609L1565.59 393.169V412.48C1565.59 412.48 1572.67 416.454 1576.9 414.009C1581.14 411.563 1591.78 404.914 1592.72 420.454C1593.66 435.995 1588.96 450.211 1598.16 458.796C1607.36 467.382 1607.83 467.688 1607.83 472.401C1607.83 477.089 1609 488.349 1633.55 497.546C1633.55 497.546 1632.61 478.108 1628.82 473.42C1625.05 468.732 1611.12 461.981 1608.3 454.211C1605.48 446.44 1598.86 429.524 1601.33 424.76C1603.8 419.996 1612.68 424.148 1612.68 424.148C1612.68 424.148 1634.61 439.944 1633.55 446.542C1632.46 453.141 1658.33 442.568 1662.33 429.473C1666.32 416.378 1622.91 395.334 1631.9 388.379C1640.87 381.424 1657.09 374.622 1653.01 383.819C1648.95 393.016 1642.13 395.869 1653.1 399.614C1664.06 403.385 1666 391.436 1663.15 386.723C1660.33 382.01 1659.92 377.832 1668.94 377.221C1677.96 376.609 1714.94 364.864 1710.71 333.35C1706.48 301.861 1673.91 308.816 1685.22 297.759C1696.54 286.728 1703.63 280.996 1693.72 281.403C1683.81 281.811 1666.35 288.562 1669.41 276.486C1672.47 264.41 1679.55 263.391 1682.73 264.92C1685.9 266.449 1680.49 281.785 1686.64 278.932C1692.78 276.079 1698.66 268.308 1702.45 275.875C1706.21 283.441 1718.26 293.046 1718.26 293.046C1718.26 293.046 1713 302.956 1720.26 305.886C1727.52 308.791 1745.16 302.88 1743.04 294.702C1740.93 286.524 1718.73 280.996 1718.5 273.633C1718.26 266.27 1720.97 269.251 1724.53 265.863C1728.05 262.5 1720.65 258.194 1729.11 256.054C1737.61 253.914 1753.54 250.831 1745.04 217.712C1736.55 184.592 1719.2 188.363 1714.97 193.076C1710.74 197.789 1712.15 186.427 1705.42 186.732C1698.69 187.038 1699.75 190.095 1699.75 190.095C1699.75 190.095 1690.54 189.331 1693.9 184.72C1697.28 180.109 1699.86 182.835 1702.92 177.918C1705.98 173.001 1703.86 164.007 1703.86 164.007C1703.86 164.007 1736.43 162.173 1744.69 165.638C1752.95 169.103 1758.65 171.37 1764.33 164.925C1770 158.479 1748.92 153.995 1758.62 151.524C1768.29 149.078 1766.65 146.403 1770.41 155.626C1774.17 164.823 1779.73 160.95 1781.61 156.237C1783.49 151.524 1791.63 147.04 1789.52 157.052C1787.4 167.065 1773.47 166.657 1781.73 177.51C1789.99 188.338 1814.59 200.974 1815.12 209.559C1815.65 218.145 1826.44 189.458 1826.08 182.096C1825.73 174.733 1800.6 172.797 1802.98 164.823C1805.33 156.849 1806.27 158.887 1809.59 161.358C1812.89 163.804 1816.56 164.007 1818.32 160.033C1820.09 156.033 1824.17 160.797 1828.41 160.645C1832.64 160.492 1834.14 146.658 1842.87 149.206C1851.6 151.753 1866.47 152.365 1859.39 146.836C1852.3 141.308 1836.73 143.754 1836.64 137.435C1836.52 131.092 1843.49 127.423 1860.09 137.435C1876.76 147.422 1883.32 136.391 1876.09 129.792ZM1219.55 310.217C1214.11 329.656 1195.01 317.58 1191.24 320.23C1187.48 322.879 1179.22 323.287 1160.35 314.701C1141.48 306.116 1136.39 316.128 1132.86 321.198C1129.34 326.267 1115.52 329.478 1108.79 318.268C1102.06 307.084 1091.27 312.587 1085.07 309.071C1078.87 305.555 1082.83 304.765 1082.95 302.727C1083.07 300.689 1090.04 300.154 1082.01 288.817C1073.99 277.454 1059.82 287.492 1059.82 287.492C1050.85 290.346 1040.24 289.123 1034.8 288.511C1029.37 287.9 1023.49 291.365 1017.34 297.403C1011.2 303.441 1005.32 303.44 999.177 301.81C993.033 300.18 995.649 293.021 995.649 293.021C995.649 293.021 1027.28 274.627 1031.98 269.71C1036.71 264.793 1043.53 249.66 1048.03 251.29C1052.53 252.921 1057 257.838 1061.26 256.615C1065.49 255.392 1069.99 248.437 1073.75 247.825C1077.51 247.214 1099.24 266.754 1103.29 269.964C1107.38 273.174 1106.32 279.009 1103.82 281.174C1101.35 283.314 1097.09 278.55 1090.39 280.868C1083.66 283.161 1097.65 285.938 1100.3 290.83C1102.94 295.747 1114.82 288.053 1116.93 282.855C1119.05 277.633 1121.2 276.104 1125.78 272.894C1130.37 269.684 1119.58 265.379 1119.58 265.379C1119.58 265.379 1100.65 257.965 1093.21 247.035C1085.77 236.106 1097.94 237.94 1097.94 237.94C1097.94 237.94 1120.72 255.621 1125.19 257.888C1129.69 260.13 1129.69 268.767 1129.69 271.544C1129.69 274.295 1141.01 289.785 1148.44 291.186C1155.88 292.562 1157.06 281.531 1154.71 276.512C1152.35 271.493 1149.88 269.098 1158.91 270.015C1167.93 270.932 1170.93 279.671 1171.28 283.467C1171.64 287.263 1188.45 294.549 1192.15 291.492C1195.89 288.435 1202.41 289.199 1204.18 293.326C1205.94 297.479 1212.73 294.091 1217.9 292.053C1223.11 289.963 1224.99 290.779 1219.55 310.217ZM1249.5 261.124C1247.15 265.633 1232.75 266.856 1222.81 264.614C1212.85 262.372 1205.15 257.048 1196.89 259.493C1188.63 261.939 1192.15 272.181 1179.9 264.614C1167.64 257.048 1182.25 242.526 1182.25 242.526C1182.25 242.526 1191.57 236.284 1195.24 236.488C1198.89 236.692 1202 246.806 1205.03 247.723C1208.03 248.64 1210.82 245.583 1212.32 237.787C1213.85 230.017 1220.26 227.571 1225.9 233.304C1231.57 239.036 1223.08 239.647 1222.78 243.316C1222.55 247.01 1251.88 256.64 1249.5 261.124ZM1312.82 290.065C1298.65 292.817 1288.92 285.938 1293.71 278.27C1298.51 270.601 1297.8 266.754 1292.3 264.156C1286.81 261.557 1271.46 250.5 1273.73 244.972C1273.73 244.972 1286.1 229.788 1294.24 230.17C1302.39 230.552 1309.47 236.182 1303.8 239.443C1298.12 242.73 1286.34 242.322 1293.65 249.863C1300.97 257.43 1326.11 261.812 1316.55 265.812C1307 269.811 1305.24 268.589 1310.17 273.48C1315.11 278.397 1326.96 287.314 1312.82 290.065Z" fill="white"/>
</g>
<g opacity="0.7">
<g opacity="0.7">
<path opacity="0.7" d="M359.598 135.842C438.264 79.4051 656.249 -37.6173 954.491 121.462" stroke="#FA9556" stroke-width="2.058" stroke-miterlimit="10" stroke-linecap="round" stroke-dasharray="9.3 9.3"/>
<path opacity="0.7" d="M969.94 145.442C973.495 146.838 977.076 148.302 980.683 149.788" stroke="#FA9556" stroke-width="2.058" stroke-miterlimit="10" stroke-linecap="round"/>
</g>
</g>
<path opacity="0.7" d="M1134.64 206.356C1134.64 206.356 1195.29 321.039 1391.7 306.892" stroke="#FA9556" stroke-width="2.058" stroke-miterlimit="10" stroke-linecap="round" stroke-dasharray="9.26 9.26"/>
<path opacity="0.7" d="M1529.6 64.2441C1529.6 64.2441 1647.57 59.3654 1670.3 172.406" stroke="#FA9556" stroke-width="2.058" stroke-miterlimit="10" stroke-linecap="round" stroke-dasharray="9.26 9.26"/>
<path d="M225.744 186.308C225.741 199.762 225.744 213.208 225.733 226.656C225.734 228.545 225.734 230.433 225.728 232.329C225.725 232.871 226.268 233.915 226.919 233.763C228.309 233.425 229.708 233.094 231.098 232.757C232.918 232.323 235.152 232.122 236.867 231.367C237.658 231.019 237.622 230.788 237.946 229.9C238.669 227.928 239.392 225.957 240.129 223.984C240.602 222.692 240.985 220.278 241.886 219.218C242.166 218.891 241.56 219.458 241.991 219.262C242.247 219.144 242.6 219.115 242.877 219.052C243.825 218.826 244.854 218.677 245.776 218.355C247.624 217.69 247.769 215.712 246.586 214.285C245.311 212.748 243.751 213.434 242.104 213.825C242.492 214.368 242.895 214.909 243.283 215.452C243.911 213.749 244.54 212.046 245.162 210.351C245.477 209.506 245.678 208.434 246.146 207.67C246.424 207.215 246.166 207.546 246.287 207.488C246.689 207.281 247.352 207.227 247.788 207.123C249.628 206.68 251.87 206.257 251.11 203.765C250.371 201.328 248.433 201.556 246.44 202.032C246.828 202.575 247.231 203.116 247.619 203.659C250.849 194.883 254.082 186.121 257.312 177.345C258.157 175.038 259.01 172.737 259.855 170.429C260.128 169.704 260.432 167.799 261.021 167.27C261.188 167.121 263.047 166.768 263.348 166.673C264.676 166.236 266.003 165.786 267.329 165.335C270.157 164.355 272.973 163.341 275.765 162.245C280.073 160.567 284.336 158.752 288.437 156.609C291.133 155.197 293.884 153.663 296.143 151.607C297.288 150.559 298.574 149.216 298.566 147.549C298.55 143.254 292.547 142.486 289.437 142.182C280.404 141.286 271.066 142.458 262.122 143.71C260.602 143.921 259.084 144.146 257.567 144.385C257.008 144.469 256.427 144.613 255.862 144.654C252.29 144.979 255.913 145.175 255.461 145.039C255.195 144.959 254.792 144.417 254.599 144.242C253.23 142.973 251.86 141.705 250.484 140.444C242.647 133.206 234.811 125.968 226.974 118.729C227.098 119.27 227.223 119.81 227.355 120.356C228.394 120.113 229.708 120.02 230.211 118.917C230.7 117.865 230.206 116.53 229.452 115.741C227.926 114.136 225.322 115.43 223.51 115.869C223.727 115.949 223.937 116.037 224.154 116.117C222.019 114.139 219.885 112.174 217.75 110.196C217.875 110.737 217.999 111.277 218.131 111.823C219.079 111.598 220.515 111.512 221.184 110.701C222.049 109.638 221.532 108.007 220.678 107.102C219.095 105.439 216.161 106.881 214.279 107.33C214.495 107.41 214.706 107.498 214.922 107.578C213.417 106.191 211.917 104.796 210.419 103.415C209.357 102.436 208.294 101.457 207.237 100.47C206.753 100.017 206.19 99.2752 205.602 98.9567C204.387 98.303 202.257 99.3314 200.971 99.6486C198.805 100.168 196.64 100.688 194.474 101.207C194.052 101.31 194.454 102.243 194.529 102.391C197.848 108.889 201.167 115.387 204.494 121.891C208.117 128.992 212.063 136.003 215.411 143.246C215.538 143.522 215.4 143.39 215.287 142.884C215.337 143.113 215.389 143.356 215.425 143.586C215.585 144.813 215.901 146.035 216.138 147.245C216.559 149.423 216.981 151.601 217.402 153.779C217.452 153.552 217.496 153.333 217.538 153.099C206.202 156.252 194.921 159.841 184.131 164.572C184.348 164.652 184.558 164.739 184.775 164.819C178.439 157.9 172.095 150.974 165.759 144.054C165.578 143.863 165.37 143.739 165.115 143.807C162.853 144.353 160.597 144.891 158.335 145.437C158.024 145.511 158.203 146.208 158.272 146.364C161.988 155.641 165.704 164.919 169.426 174.188C169.413 173.912 169.4 173.636 169.387 173.359C166.689 176.468 168.002 179.454 171.605 180.914C171.303 180.438 171.01 179.969 170.714 179.486C171.628 189.434 172.535 199.389 173.449 209.337C173.501 209.872 173.96 210.926 174.639 210.77C176.901 210.225 179.157 209.687 181.419 209.141C181.512 209.086 181.566 209.001 181.58 208.885C183.127 203.298 184.661 197.712 186.208 192.125C187.048 189.091 187.882 186.066 188.722 183.032C189.06 181.8 188.793 181.883 189.991 181.955C192.993 182.136 196.304 181.431 199.282 181.087C207.499 180.119 215.645 178.704 223.742 177.059C223.399 176.653 223.062 176.239 222.725 175.825C223.754 179.388 224.783 182.951 225.812 186.513C226.015 187.229 227.497 188.37 227.117 187.035C226.088 183.472 225.059 179.909 224.03 176.346C223.934 176.03 223.514 175.007 223.014 175.112C211.479 177.463 199.805 179.39 188.048 180.088C187.872 180.103 187.794 180.219 187.749 180.375C186.056 186.507 184.363 192.64 182.663 198.781C181.928 201.452 181.489 204.557 180.367 207.106C180.105 207.687 180.385 207.246 180.278 207.302C179.73 207.598 178.859 207.643 178.265 207.788C176.722 208.159 175.179 208.53 173.636 208.9C174.038 209.378 174.432 209.849 174.827 210.334C173.914 200.386 173.006 190.43 172.093 180.482C172.042 179.962 171.72 179.268 171.202 179.054C170.189 178.646 169.046 177.998 169.456 176.771C169.68 176.109 170.198 175.574 170.639 175.056C170.806 174.857 170.674 174.424 170.6 174.227C166.884 164.95 163.168 155.672 159.454 146.409C159.428 146.718 159.417 147.026 159.391 147.336C161.653 146.79 163.909 146.252 166.171 145.706C165.955 145.626 165.744 145.538 165.528 145.458C171.864 152.378 178.208 159.304 184.544 166.223C184.693 166.39 184.952 166.579 185.188 166.471C195.977 161.74 207.251 158.145 218.595 154.998C218.836 154.933 218.764 154.471 218.731 154.319C218.036 150.75 217.701 146.865 216.612 143.395C215.95 141.283 214.548 139.242 213.555 137.278C208.841 128.061 204.135 118.836 199.422 109.619C198.103 107.047 196.792 104.481 195.48 101.901C195.501 102.298 195.522 102.694 195.535 103.085C199.028 102.243 202.516 101.408 206.009 100.566C205.793 100.486 205.582 100.399 205.366 100.319C208.225 102.962 211.085 105.605 213.944 108.248C215.04 109.266 215.303 109.205 216.812 108.845C217.65 108.648 219.347 107.802 219.589 108.713C219.831 109.623 217.906 109.735 217.139 109.923C216.558 110.067 217.327 111.375 217.52 111.55C219.557 113.427 221.512 115.67 223.747 117.308C224.61 117.941 225.17 117.579 226.223 117.334C226.506 117.263 229.443 116.241 228.498 117.862C228.275 118.246 226.716 118.377 226.371 118.463C225.79 118.606 226.559 119.914 226.752 120.09C233.323 126.153 239.881 132.219 246.452 138.282C249.288 140.907 252.024 143.822 255.054 146.23C255.275 146.402 255.433 146.639 255.714 146.718C256.701 146.98 258.588 146.281 259.617 146.131C261.113 145.902 262.619 145.693 264.125 145.483C269.178 144.803 274.248 144.263 279.333 144.013C282.953 143.839 286.607 143.768 290.221 144.123C291.952 144.291 295.762 144.443 296.977 146.009C299.043 148.694 289.472 153.651 287.935 154.47C279.255 159.094 269.939 161.981 260.736 165.324C259.488 165.772 259.507 166.497 259.053 167.715C258.372 169.567 257.697 171.411 257.008 173.257C253.442 182.938 249.882 192.61 246.321 202.282C246.113 202.843 246.864 204.06 247.501 203.909C247.812 203.835 248.209 203.65 248.525 203.668C248.698 203.625 248.864 203.59 249.029 203.54C249.615 204.237 249.572 204.634 248.872 204.736C248.52 204.994 247.655 205.03 247.219 205.135C246.084 205.404 245.369 205.33 244.832 206.28C243.525 208.595 242.884 211.569 241.963 214.071C241.755 214.631 242.506 215.849 243.143 215.698C243.488 215.612 244.902 215.065 245.156 215.211C246.71 216.079 244.603 216.492 244.237 216.587C243.264 216.844 241.269 216.901 240.631 217.672C240.142 218.267 239.935 219.575 239.675 220.285C239.008 222.085 238.349 223.878 237.69 225.685C237.297 226.76 237.009 228.449 236.327 229.375C236.066 229.742 236.656 229.213 236.063 229.436C235.518 229.633 234.908 229.716 234.348 229.85C231.539 230.528 228.737 231.198 225.929 231.877C226.33 232.354 226.724 232.825 227.119 233.31C227.122 219.856 227.119 206.41 227.122 192.956C227.121 191.067 227.121 189.179 227.127 187.283C227.11 186.637 225.739 185.126 225.744 186.308Z" fill="#FA9556"/>
<path d="M286.473 153.091C286.237 152.109 285.998 151.113 285.762 150.13C285.586 149.411 285.419 148.698 285.244 147.979C285.141 147.557 284.987 147.12 284.934 146.699C284.906 146.475 284.982 146.28 285.131 146.105C285.274 145.937 285.507 145.801 285.723 145.767C285.709 145.769 285.901 145.766 285.951 145.767C286.037 145.771 286.198 145.857 286.268 145.849C286.226 145.854 286.087 145.315 286.159 145.663C286.198 145.857 286.25 146.05 286.295 146.237C286.632 147.627 286.97 149.018 287.301 150.416C287.42 150.914 287.597 151.419 287.666 151.916C287.698 152.169 287.599 152.409 287.408 152.59C287.211 152.779 286.937 152.87 286.715 152.862C286.601 152.862 286.464 152.793 286.357 152.785C286.235 152.779 286.362 152.713 286.473 153.091C286.347 152.651 286.08 152.05 285.604 151.896C285.165 151.744 285.07 152.24 285.162 152.578C285.409 153.417 285.884 154.255 286.708 154.63C287.238 154.877 287.898 154.859 288.373 154.493C289.121 153.923 289.109 153.026 288.913 152.203C288.541 150.646 288.169 149.089 287.796 147.532C287.679 147.048 287.574 146.548 287.442 146.066C287.121 144.866 286.05 143.474 284.65 143.906C282.838 144.46 283.795 146.877 284.095 148.136C284.451 149.617 284.806 151.098 285.162 152.578C285.266 153.014 285.564 153.625 286.031 153.774C286.484 153.924 286.557 153.423 286.473 153.091Z" fill="#FA9556"/>
<path d="M223.856 177.059C234.645 174.266 245.434 171.474 256.23 168.673C257.783 168.272 259.336 167.872 260.89 167.471C261.525 167.307 260.651 165.385 259.871 165.589C249.082 168.382 238.292 171.175 227.497 173.975C225.944 174.376 224.39 174.776 222.837 175.177C222.194 175.335 223.068 177.257 223.856 177.059Z" fill="#FA9556"/>
<path d="M255.01 144.789C244.131 147.209 233.246 149.636 222.368 152.055C220.801 152.407 219.241 152.751 217.666 153.098C216.849 153.285 217.749 155.189 218.408 155.043C229.287 152.624 240.171 150.197 251.05 147.778C252.617 147.425 254.177 147.081 255.751 146.735C256.577 146.554 255.668 144.643 255.01 144.789Z" fill="#FA9556"/>
<path d="M1864.85 160.349C1872.03 169.581 1879.21 178.805 1886.38 188.037C1887.39 189.332 1888.4 190.627 1889.41 191.931C1889.69 192.305 1890.62 192.731 1890.99 192.279C1891.76 191.305 1892.55 190.331 1893.32 189.358C1894.34 188.089 1895.76 186.759 1896.54 185.324C1896.89 184.664 1896.74 184.525 1896.49 183.742C1895.94 182.004 1895.38 180.265 1894.83 178.518C1894.47 177.379 1893.44 175.519 1893.49 174.31C1893.51 173.937 1893.4 174.649 1893.59 174.284C1893.7 174.067 1893.93 173.858 1894.08 173.667C1894.61 173.006 1895.24 172.354 1895.7 171.642C1896.61 170.199 1895.66 168.764 1894.08 168.417C1892.39 168.043 1891.69 169.347 1890.76 170.494C1891.32 170.659 1891.89 170.816 1892.44 170.981C1891.96 169.477 1891.49 167.973 1891.01 166.478C1890.77 165.73 1890.34 164.887 1890.25 164.114C1890.2 163.653 1890.2 164.018 1890.25 163.914C1890.42 163.557 1890.84 163.166 1891.09 162.862C1892.11 161.575 1893.42 160.089 1891.57 158.785C1889.76 157.507 1888.56 158.698 1887.44 160.089C1888 160.254 1888.56 160.41 1889.12 160.575C1886.65 152.83 1884.19 145.093 1881.72 137.348C1881.07 135.314 1880.43 133.28 1879.78 131.246C1879.58 130.602 1878.77 129.133 1878.89 128.455C1878.92 128.264 1880.01 127.029 1880.17 126.803C1880.85 125.795 1881.51 124.778 1882.18 123.761C1883.6 121.579 1884.99 119.38 1886.32 117.137C1888.38 113.686 1890.34 110.165 1892.01 106.505C1893.1 104.097 1894.17 101.576 1894.62 98.9599C1894.85 97.6299 1895.01 96.0217 1894.12 94.8829C1891.82 91.9447 1887.29 94.6221 1884.99 96.0739C1878.32 100.281 1872.53 106.071 1867.07 111.704C1866.14 112.66 1865.22 113.625 1864.3 114.599C1863.96 114.955 1863.64 115.363 1863.28 115.694C1861 117.824 1863.59 116.024 1863.21 116.172C1862.98 116.259 1862.42 116.102 1862.19 116.085C1860.57 115.946 1858.96 115.807 1857.34 115.676C1848.1 114.894 1838.86 114.112 1829.62 113.329C1829.99 113.634 1830.37 113.938 1830.75 114.242C1831.33 113.521 1832.18 112.756 1831.94 111.73C1831.71 110.748 1830.66 110.096 1829.72 109.956C1827.82 109.67 1826.72 111.947 1825.71 113.216C1825.91 113.155 1826.1 113.103 1826.29 113.042C1823.77 112.825 1821.26 112.617 1818.73 112.399C1819.11 112.703 1819.48 113.008 1819.86 113.312C1820.39 112.651 1821.33 111.825 1821.36 110.913C1821.39 109.722 1820.16 108.879 1819.09 108.713C1817.12 108.418 1815.87 110.974 1814.82 112.286C1815.01 112.225 1815.2 112.173 1815.4 112.112C1813.62 111.965 1811.85 111.808 1810.08 111.66C1808.83 111.556 1807.58 111.452 1806.33 111.339C1805.76 111.287 1804.97 111.078 1804.4 111.173C1803.22 111.373 1802.3 113.216 1801.59 114.12C1800.38 115.633 1799.18 117.146 1797.97 118.658C1797.73 118.954 1798.51 119.38 1798.64 119.44C1804.38 122.127 1810.13 124.813 1815.88 127.499C1822.16 130.437 1828.61 133.141 1834.77 136.322C1835.01 136.444 1834.84 136.427 1834.49 136.14C1834.65 136.27 1834.82 136.409 1834.96 136.548C1835.73 137.304 1836.6 137.974 1837.41 138.678C1838.86 139.947 1840.31 141.216 1841.76 142.485C1841.67 142.303 1841.59 142.129 1841.49 141.947C1835.4 150.161 1829.57 158.646 1824.7 167.652C1824.89 167.591 1825.08 167.539 1825.27 167.478C1817.23 166.113 1809.18 164.748 1801.14 163.383C1800.91 163.349 1800.71 163.375 1800.57 163.557C1799.31 165.139 1798.05 166.713 1796.78 168.295C1796.61 168.512 1797.11 168.895 1797.24 168.964C1804.74 173.345 1812.24 177.727 1819.74 182.099C1819.59 181.917 1819.43 181.734 1819.27 181.552C1819.08 185.124 1821.58 186.472 1824.83 185.55C1824.37 185.385 1823.92 185.22 1823.45 185.046C1829.39 191.383 1835.33 197.729 1841.27 204.066C1841.59 204.405 1842.47 204.883 1842.85 204.414C1844.11 202.832 1845.37 201.258 1846.63 199.676C1846.66 199.589 1846.66 199.502 1846.6 199.416C1844.68 194.756 1842.75 190.105 1840.83 185.446C1839.79 182.916 1838.75 180.395 1837.7 177.866C1837.28 176.84 1837.14 177.04 1838 176.449C1840.15 174.971 1842.05 172.72 1843.91 170.894C1849.03 165.843 1853.86 160.523 1858.54 155.073C1858.09 154.977 1857.64 154.873 1857.18 154.769C1859.79 156.664 1862.4 158.559 1865.01 160.454C1865.53 160.836 1867.15 160.828 1866.18 160.115C1863.57 158.22 1860.96 156.325 1858.36 154.43C1858.12 154.264 1857.29 153.786 1857 154.125C1850.34 161.897 1843.36 169.451 1835.67 176.205C1835.56 176.31 1835.56 176.431 1835.62 176.562C1837.73 181.673 1839.84 186.785 1841.95 191.905C1842.87 194.13 1844.23 196.495 1844.82 198.842C1844.95 199.381 1844.91 198.929 1844.87 199.024C1844.65 199.52 1844.07 200.015 1843.74 200.433C1842.88 201.511 1842.02 202.588 1841.16 203.666C1841.69 203.779 1842.21 203.892 1842.74 204.014C1836.81 197.677 1830.87 191.331 1824.93 184.994C1824.62 184.664 1824.03 184.359 1823.56 184.49C1822.65 184.751 1821.52 184.916 1821.14 183.855C1820.94 183.281 1821.01 182.638 1821.04 182.047C1821.05 181.821 1820.72 181.595 1820.57 181.499C1813.07 177.118 1805.56 172.737 1798.07 168.364C1798.22 168.59 1798.38 168.808 1798.52 169.034C1799.78 167.452 1801.04 165.878 1802.3 164.296C1802.11 164.357 1801.92 164.409 1801.73 164.47C1809.77 165.835 1817.82 167.2 1825.86 168.564C1826.05 168.599 1826.33 168.59 1826.44 168.39C1831.31 159.385 1837.13 150.9 1843.23 142.685C1843.36 142.512 1843.07 142.233 1842.96 142.146C1840.58 140.069 1838.28 137.583 1835.68 135.783C1834.09 134.688 1832.04 134.036 1830.31 133.219C1822.16 129.411 1814.01 125.595 1805.85 121.788C1803.57 120.727 1801.3 119.667 1799.03 118.597C1799.25 118.858 1799.48 119.119 1799.7 119.38C1801.64 116.937 1803.59 114.503 1805.54 112.06C1805.35 112.121 1805.16 112.173 1804.96 112.234C1808.34 112.521 1811.71 112.808 1815.08 113.095C1816.38 113.208 1816.53 113.025 1817.37 111.973C1817.84 111.391 1818.55 109.904 1819.2 110.4C1819.86 110.895 1818.6 111.999 1818.17 112.538C1817.85 112.947 1819.07 113.434 1819.3 113.451C1821.7 113.651 1824.24 114.146 1826.64 114.077C1827.58 114.051 1827.77 113.503 1828.36 112.773C1828.51 112.573 1829.98 110.304 1830.2 111.921C1830.25 112.304 1829.25 113.225 1829.06 113.468C1828.74 113.877 1829.97 114.364 1830.19 114.381C1837.94 115.033 1845.67 115.694 1853.42 116.346C1856.77 116.633 1860.2 117.172 1863.56 117.206C1863.81 117.206 1864.04 117.285 1864.28 117.189C1865.09 116.841 1866.02 115.355 1866.64 114.703C1867.55 113.747 1868.47 112.799 1869.39 111.852C1872.49 108.687 1875.68 105.61 1879.04 102.724C1881.43 100.672 1883.9 98.673 1886.57 96.9866C1887.84 96.1782 1890.54 94.2483 1892.21 94.6743C1895.06 95.4132 1891.14 103.924 1890.52 105.306C1887.03 113.112 1882.18 120.066 1877.66 127.273C1877.04 128.246 1877.44 128.733 1877.78 129.811C1878.3 131.445 1878.82 133.071 1879.33 134.705C1882.05 143.25 1884.77 151.787 1887.5 160.323C1887.65 160.819 1888.82 161.254 1889.17 160.81C1889.35 160.593 1889.52 160.254 1889.75 160.097C1889.84 159.976 1889.94 159.863 1890.03 159.741C1890.8 159.906 1890.98 160.202 1890.56 160.645C1890.45 161.01 1889.88 161.497 1889.63 161.801C1889 162.592 1888.47 162.923 1888.61 163.861C1888.95 166.148 1890.09 168.53 1890.8 170.738C1890.96 171.233 1892.12 171.668 1892.48 171.224C1892.67 170.981 1893.35 169.851 1893.6 169.816C1895.13 169.581 1893.9 170.99 1893.7 171.25C1893.17 171.946 1891.83 173.05 1891.81 173.919C1891.79 174.589 1892.35 175.597 1892.55 176.223C1893.05 177.814 1893.55 179.396 1894.07 180.987C1894.37 181.934 1895.08 183.247 1895.1 184.246C1895.12 184.638 1895.24 183.96 1894.95 184.429C1894.68 184.855 1894.31 185.237 1894 185.629C1892.43 187.593 1890.87 189.549 1889.3 191.514C1889.83 191.627 1890.36 191.74 1890.89 191.861C1883.71 182.629 1876.52 173.406 1869.34 164.174C1868.34 162.879 1867.33 161.584 1866.32 160.28C1865.96 159.845 1864.22 159.541 1864.85 160.349Z" fill="#FA9556"/>
<path d="M1888.78 105.141C1888.1 104.593 1887.4 104.037 1886.71 103.489C1886.21 103.089 1885.71 102.689 1885.21 102.289C1884.91 102.055 1884.57 101.837 1884.31 101.577C1884.17 101.437 1884.12 101.264 1884.13 101.064C1884.14 100.872 1884.23 100.655 1884.36 100.516C1884.35 100.525 1884.48 100.42 1884.51 100.394C1884.57 100.351 1884.73 100.325 1884.77 100.281C1884.75 100.307 1884.37 100.012 1884.6 100.212C1884.73 100.325 1884.87 100.429 1885 100.533C1885.97 101.307 1886.95 102.081 1887.92 102.863C1888.27 103.141 1888.66 103.393 1888.97 103.698C1889.13 103.854 1889.19 104.071 1889.16 104.297C1889.12 104.532 1888.98 104.741 1888.83 104.854C1888.75 104.915 1888.62 104.941 1888.54 104.993C1888.45 105.054 1888.5 104.941 1888.78 105.141C1888.46 104.906 1887.96 104.636 1887.55 104.784C1887.17 104.915 1887.37 105.306 1887.61 105.488C1888.23 105.932 1889 106.253 1889.76 106.071C1890.26 105.958 1890.7 105.593 1890.83 105.088C1891.04 104.297 1890.56 103.689 1889.98 103.228C1888.9 102.359 1887.81 101.49 1886.72 100.62C1886.38 100.351 1886.04 100.064 1885.7 99.8032C1884.84 99.1512 1883.36 98.7687 1882.63 99.8119C1881.68 101.159 1883.63 102.307 1884.51 103.011C1885.54 103.837 1886.57 104.663 1887.61 105.488C1887.91 105.732 1888.44 105.993 1888.84 105.845C1889.23 105.706 1889.02 105.323 1888.78 105.141Z" fill="#FA9556"/>
<path d="M1858.62 155.012C1864.53 147.336 1870.44 139.66 1876.35 131.976C1877.2 130.872 1878.05 129.768 1878.91 128.664C1879.25 128.212 1877.63 127.36 1877.2 127.916C1871.29 135.592 1865.38 143.268 1859.47 150.952C1858.62 152.056 1857.77 153.16 1856.91 154.264C1856.56 154.717 1858.18 155.568 1858.62 155.012Z" fill="#FA9556"/>
<path d="M1862.76 116.242C1856.59 123.709 1850.42 131.185 1844.25 138.652C1843.36 139.73 1842.47 140.799 1841.58 141.877C1841.12 142.442 1842.75 143.268 1843.13 142.816C1849.3 135.349 1855.47 127.873 1861.64 120.405C1862.53 119.328 1863.42 118.258 1864.31 117.18C1864.78 116.615 1863.14 115.789 1862.76 116.242Z" fill="#FA9556"/>
<path d="M158.25 181.341C158.25 181.341 144.14 173.551 141.18 211.151C138.21 248.751 159.16 279.391 181.94 266.801C204.71 254.211 156.9 224.981 141.18 264.191C125.46 303.401 92.67 319.031 28 301.651" stroke="#FA9556" stroke-width="2.223" stroke-miterlimit="10" stroke-linecap="round" stroke-linejoin="round" stroke-dasharray="6.67 6.67"/>
<path d="M1820.25 195.231C1820.25 195.231 1806.14 187.441 1803.18 225.041C1800.21 262.641 1821.16 293.281 1843.94 280.691C1866.71 268.101 1818.9 238.871 1803.18 278.081C1787.46 317.291 1754.67 332.921 1690 315.541" stroke="#FA9556" stroke-width="2.223" stroke-miterlimit="10" stroke-linecap="round" stroke-linejoin="round" stroke-dasharray="6.67 6.67"/>
<path d="M589.11 216.963C589.11 216.963 627.37 253.403 656.51 250.663C685.66 247.933 684.5 225.903 667.77 223.713C651.04 221.523 646.12 248.843 679.55 262.053C712.98 275.263 746.62 247.023 747.11 209.673" stroke="#FFA200" stroke-width="2.223" stroke-miterlimit="10" stroke-linecap="round" stroke-linejoin="round" stroke-dasharray="6.67 6.67"/>
<path d="M903.08 192.88V204H901.256V199.136H896.024V204H894.2V192.88H896.024V197.648H901.256V192.88H903.08ZM909.305 204.144C908.473 204.144 907.721 203.957 907.049 203.584C906.377 203.2 905.849 202.667 905.465 201.984C905.081 201.291 904.889 200.491 904.889 199.584C904.889 198.688 905.087 197.893 905.481 197.2C905.876 196.507 906.415 195.973 907.097 195.6C907.78 195.227 908.543 195.04 909.385 195.04C910.228 195.04 910.991 195.227 911.673 195.6C912.356 195.973 912.895 196.507 913.289 197.2C913.684 197.893 913.881 198.688 913.881 199.584C913.881 200.48 913.679 201.275 913.273 201.968C912.868 202.661 912.313 203.2 911.609 203.584C910.916 203.957 910.148 204.144 909.305 204.144ZM909.305 202.56C909.775 202.56 910.212 202.448 910.617 202.224C911.033 202 911.369 201.664 911.625 201.216C911.881 200.768 912.009 200.224 912.009 199.584C912.009 198.944 911.887 198.405 911.641 197.968C911.396 197.52 911.071 197.184 910.665 196.96C910.26 196.736 909.823 196.624 909.353 196.624C908.884 196.624 908.447 196.736 908.041 196.96C907.647 197.184 907.332 197.52 907.097 197.968C906.863 198.405 906.745 198.944 906.745 199.584C906.745 200.533 906.985 201.269 907.465 201.792C907.956 202.304 908.569 202.56 909.305 202.56ZM926.356 195.04C927.05 195.04 927.668 195.184 928.212 195.472C928.767 195.76 929.199 196.187 929.508 196.752C929.828 197.317 929.988 198 929.988 198.8V204H928.18V199.072C928.18 198.283 927.983 197.68 927.588 197.264C927.194 196.837 926.655 196.624 925.972 196.624C925.29 196.624 924.746 196.837 924.34 197.264C923.946 197.68 923.748 198.283 923.748 199.072V204H921.94V199.072C921.94 198.283 921.743 197.68 921.348 197.264C920.954 196.837 920.415 196.624 919.732 196.624C919.05 196.624 918.506 196.837 918.1 197.264C917.706 197.68 917.508 198.283 917.508 199.072V204H915.684V195.184H917.508V196.192C917.807 195.829 918.186 195.547 918.644 195.344C919.103 195.141 919.594 195.04 920.116 195.04C920.82 195.04 921.45 195.189 922.004 195.488C922.559 195.787 922.986 196.219 923.284 196.784C923.551 196.251 923.967 195.829 924.532 195.52C925.098 195.2 925.706 195.04 926.356 195.04ZM940.389 199.376C940.389 199.707 940.368 200.005 940.325 200.272H933.589C933.643 200.976 933.904 201.541 934.373 201.968C934.843 202.395 935.419 202.608 936.101 202.608C937.083 202.608 937.776 202.197 938.181 201.376H940.149C939.883 202.187 939.397 202.853 938.693 203.376C938 203.888 937.136 204.144 936.101 204.144C935.259 204.144 934.501 203.957 933.829 203.584C933.168 203.2 932.645 202.667 932.261 201.984C931.888 201.291 931.701 200.491 931.701 199.584C931.701 198.677 931.883 197.883 932.245 197.2C932.619 196.507 933.136 195.973 933.797 195.6C934.469 195.227 935.237 195.04 936.101 195.04C936.933 195.04 937.675 195.221 938.325 195.584C938.976 195.947 939.483 196.459 939.845 197.12C940.208 197.771 940.389 198.523 940.389 199.376ZM938.485 198.8C938.475 198.128 938.235 197.589 937.765 197.184C937.296 196.779 936.715 196.576 936.021 196.576C935.392 196.576 934.853 196.779 934.405 197.184C933.957 197.579 933.691 198.117 933.605 198.8H938.485ZM948.952 197.44V198.976H942.376V197.44H948.952ZM962.884 192.88V194.368H959.924V204H958.1V194.368H955.124V192.88H962.884ZM968.555 204.144C967.723 204.144 966.971 203.957 966.299 203.584C965.627 203.2 965.099 202.667 964.715 201.984C964.331 201.291 964.139 200.491 964.139 199.584C964.139 198.688 964.337 197.893 964.731 197.2C965.126 196.507 965.665 195.973 966.347 195.6C967.03 195.227 967.793 195.04 968.635 195.04C969.478 195.04 970.241 195.227 970.923 195.6C971.606 195.973 972.145 196.507 972.539 197.2C972.934 197.893 973.131 198.688 973.131 199.584C973.131 200.48 972.929 201.275 972.523 201.968C972.118 202.661 971.563 203.2 970.859 203.584C970.166 203.957 969.398 204.144 968.555 204.144ZM968.555 202.56C969.025 202.56 969.462 202.448 969.867 202.224C970.283 202 970.619 201.664 970.875 201.216C971.131 200.768 971.259 200.224 971.259 199.584C971.259 198.944 971.137 198.405 970.891 197.968C970.646 197.52 970.321 197.184 969.915 196.96C969.51 196.736 969.073 196.624 968.603 196.624C968.134 196.624 967.697 196.736 967.291 196.96C966.897 197.184 966.582 197.52 966.347 197.968C966.113 198.405 965.995 198.944 965.995 199.584C965.995 200.533 966.235 201.269 966.715 201.792C967.206 202.304 967.819 202.56 968.555 202.56ZM982.918 195.184V204H981.094V202.96C980.806 203.323 980.428 203.611 979.958 203.824C979.5 204.027 979.009 204.128 978.486 204.128C977.793 204.128 977.169 203.984 976.614 203.696C976.07 203.408 975.638 202.981 975.318 202.416C975.009 201.851 974.854 201.168 974.854 200.368V195.184H976.662V200.096C976.662 200.885 976.86 201.493 977.254 201.92C977.649 202.336 978.188 202.544 978.87 202.544C979.553 202.544 980.092 202.336 980.486 201.92C980.892 201.493 981.094 200.885 981.094 200.096V195.184H982.918ZM987.149 196.464C987.416 196.016 987.768 195.669 988.205 195.424C988.653 195.168 989.181 195.04 989.789 195.04V196.928H989.325C988.61 196.928 988.066 197.109 987.693 197.472C987.33 197.835 987.149 198.464 987.149 199.36V204H985.325V195.184H987.149V196.464ZM1003.67 196.08C1003.38 195.525 1002.98 195.109 1002.47 194.832C1001.96 194.544 1001.37 194.4 1000.69 194.4C999.958 194.4 999.302 194.565 998.726 194.896C998.15 195.227 997.697 195.696 997.366 196.304C997.046 196.912 996.886 197.616 996.886 198.416C996.886 199.216 997.046 199.925 997.366 200.544C997.697 201.152 998.15 201.621 998.726 201.952C999.302 202.283 999.958 202.448 1000.69 202.448C1001.69 202.448 1002.49 202.171 1003.11 201.616C1003.73 201.061 1004.11 200.309 1004.25 199.36H1000.07V197.904H1006.2V199.328C1006.08 200.192 1005.77 200.987 1005.27 201.712C1004.78 202.437 1004.13 203.019 1003.33 203.456C1002.54 203.883 1001.66 204.096 1000.69 204.096C999.649 204.096 998.694 203.856 997.83 203.376C996.966 202.885 996.278 202.208 995.766 201.344C995.265 200.48 995.014 199.504 995.014 198.416C995.014 197.328 995.265 196.352 995.766 195.488C996.278 194.624 996.966 193.952 997.83 193.472C998.705 192.981 999.659 192.736 1000.69 192.736C1001.88 192.736 1002.93 193.029 1003.85 193.616C1004.77 194.192 1005.45 195.013 1005.86 196.08H1003.67ZM1009.82 196.464C1010.09 196.016 1010.44 195.669 1010.88 195.424C1011.32 195.168 1011.85 195.04 1012.46 195.04V196.928H1012C1011.28 196.928 1010.74 197.109 1010.36 197.472C1010 197.835 1009.82 198.464 1009.82 199.36V204H1008V195.184H1009.82V196.464ZM1015.07 194.016C1014.73 194.016 1014.46 193.904 1014.23 193.68C1014.01 193.456 1013.9 193.179 1013.9 192.848C1013.9 192.517 1014.01 192.24 1014.23 192.016C1014.46 191.792 1014.73 191.68 1015.07 191.68C1015.39 191.68 1015.66 191.792 1015.88 192.016C1016.11 192.24 1016.22 192.517 1016.22 192.848C1016.22 193.179 1016.11 193.456 1015.88 193.68C1015.66 193.904 1015.39 194.016 1015.07 194.016ZM1015.96 195.184V204H1014.14V195.184H1015.96ZM1017.75 199.552C1017.75 198.667 1017.93 197.883 1018.29 197.2C1018.67 196.517 1019.17 195.989 1019.8 195.616C1020.44 195.232 1021.15 195.04 1021.92 195.04C1022.5 195.04 1023.07 195.168 1023.62 195.424C1024.19 195.669 1024.63 196 1024.96 196.416V192.16H1026.8V204H1024.96V202.672C1024.67 203.099 1024.25 203.451 1023.72 203.728C1023.19 204.005 1022.59 204.144 1021.91 204.144C1021.14 204.144 1020.44 203.952 1019.8 203.568C1019.17 203.173 1018.67 202.629 1018.29 201.936C1017.93 201.232 1017.75 200.437 1017.75 199.552ZM1024.96 199.584C1024.96 198.976 1024.84 198.448 1024.58 198C1024.33 197.552 1024.01 197.211 1023.6 196.976C1023.2 196.741 1022.76 196.624 1022.29 196.624C1021.82 196.624 1021.39 196.741 1020.98 196.976C1020.57 197.2 1020.24 197.536 1019.99 197.984C1019.74 198.421 1019.62 198.944 1019.62 199.552C1019.62 200.16 1019.74 200.693 1019.99 201.152C1020.24 201.611 1020.57 201.963 1020.98 202.208C1021.4 202.443 1021.83 202.56 1022.29 202.56C1022.76 202.56 1023.2 202.443 1023.6 202.208C1024.01 201.973 1024.33 201.632 1024.58 201.184C1024.84 200.725 1024.96 200.192 1024.96 199.584Z" fill="#1F3347"/>
<path d="M895.412 151.728V156.66H888.716V177H882.56V156.66H875.864V151.728H895.412ZM907.646 177.288C905.678 177.288 903.902 176.868 902.318 176.028C900.758 175.188 899.522 173.988 898.61 172.428C897.722 170.868 897.278 169.044 897.278 166.956C897.278 164.892 897.734 163.08 898.646 161.52C899.558 159.936 900.806 158.724 902.39 157.884C903.974 157.044 905.75 156.624 907.718 156.624C909.686 156.624 911.462 157.044 913.046 157.884C914.63 158.724 915.878 159.936 916.79 161.52C917.702 163.08 918.158 164.892 918.158 166.956C918.158 169.02 917.69 170.844 916.754 172.428C915.842 173.988 914.582 175.188 912.974 176.028C911.39 176.868 909.614 177.288 907.646 177.288ZM907.646 171.96C908.822 171.96 909.818 171.528 910.634 170.664C911.474 169.8 911.894 168.564 911.894 166.956C911.894 165.348 911.486 164.112 910.67 163.248C909.878 162.384 908.894 161.952 907.718 161.952C906.518 161.952 905.522 162.384 904.73 163.248C903.938 164.088 903.542 165.324 903.542 166.956C903.542 168.564 903.926 169.8 904.694 170.664C905.486 171.528 906.47 171.96 907.646 171.96ZM941.259 156.912V177H935.103V174.264C934.479 175.152 933.627 175.872 932.547 176.424C931.491 176.952 930.315 177.216 929.019 177.216C927.483 177.216 926.127 176.88 924.951 176.208C923.775 175.512 922.863 174.516 922.215 173.22C921.567 171.924 921.243 170.4 921.243 168.648V156.912H927.363V167.82C927.363 169.164 927.711 170.208 928.407 170.952C929.103 171.696 930.039 172.068 931.215 172.068C932.415 172.068 933.363 171.696 934.059 170.952C934.755 170.208 935.103 169.164 935.103 167.82V156.912H941.259ZM951.837 160.26C952.557 159.156 953.457 158.292 954.537 157.668C955.617 157.02 956.817 156.696 958.137 156.696V163.212H956.445C954.909 163.212 953.757 163.548 952.989 164.22C952.221 164.868 951.837 166.02 951.837 167.676V177H945.681V156.912H951.837V160.26ZM985.485 159.72C985.029 158.88 984.369 158.244 983.505 157.812C982.665 157.356 981.669 157.128 980.517 157.128C978.525 157.128 976.929 157.788 975.729 159.108C974.529 160.404 973.929 162.144 973.929 164.328C973.929 166.656 974.553 168.48 975.801 169.8C977.073 171.096 978.813 171.744 981.021 171.744C982.533 171.744 983.805 171.36 984.837 170.592C985.893 169.824 986.661 168.72 987.141 167.28H979.329V162.744H992.721V168.468C992.265 170.004 991.485 171.432 990.381 172.752C989.301 174.072 987.921 175.14 986.241 175.956C984.561 176.772 982.665 177.18 980.553 177.18C978.057 177.18 975.825 176.64 973.857 175.56C971.913 174.456 970.389 172.932 969.285 170.988C968.205 169.044 967.665 166.824 967.665 164.328C967.665 161.832 968.205 159.612 969.285 157.668C970.389 155.7 971.913 154.176 973.857 153.096C975.801 151.992 978.021 151.44 980.517 151.44C983.541 151.44 986.085 152.172 988.149 153.636C990.237 155.1 991.617 157.128 992.289 159.72H985.485ZM1002.29 160.26C1003.01 159.156 1003.91 158.292 1004.99 157.668C1006.07 157.02 1007.27 156.696 1008.59 156.696V163.212H1006.89C1005.36 163.212 1004.21 163.548 1003.44 164.22C1002.67 164.868 1002.29 166.02 1002.29 167.676V177H996.13V156.912H1002.29V160.26ZM1014.62 154.824C1013.54 154.824 1012.66 154.512 1011.96 153.888C1011.29 153.24 1010.95 152.448 1010.95 151.512C1010.95 150.552 1011.29 149.76 1011.96 149.136C1012.66 148.488 1013.54 148.164 1014.62 148.164C1015.68 148.164 1016.54 148.488 1017.22 149.136C1017.91 149.76 1018.26 150.552 1018.26 151.512C1018.26 152.448 1017.91 153.24 1017.22 153.888C1016.54 154.512 1015.68 154.824 1014.62 154.824ZM1017.68 156.912V177H1011.53V156.912H1017.68ZM1020.92 166.92C1020.92 164.856 1021.31 163.044 1022.07 161.484C1022.87 159.924 1023.93 158.724 1025.28 157.884C1026.62 157.044 1028.12 156.624 1029.78 156.624C1031.1 156.624 1032.3 156.9 1033.38 157.452C1034.48 158.004 1035.35 158.748 1035.97 159.684V150.36H1042.13V177H1035.97V174.12C1035.39 175.08 1034.57 175.848 1033.49 176.424C1032.43 177 1031.19 177.288 1029.78 177.288C1028.12 177.288 1026.62 176.868 1025.28 176.028C1023.93 175.164 1022.87 173.952 1022.07 172.392C1021.31 170.808 1020.92 168.984 1020.92 166.92ZM1035.97 166.956C1035.97 165.42 1035.54 164.208 1034.67 163.32C1033.83 162.432 1032.8 161.988 1031.58 161.988C1030.35 161.988 1029.31 162.432 1028.45 163.32C1027.61 164.184 1027.19 165.384 1027.19 166.92C1027.19 168.456 1027.61 169.68 1028.45 170.592C1029.31 171.48 1030.35 171.924 1031.58 171.924C1032.8 171.924 1033.83 171.48 1034.67 170.592C1035.54 169.704 1035.97 168.492 1035.97 166.956Z" fill="#1F3347"/>
</svg>
